<svg width="68" height="10" viewBox="0 0 68 10" fill="none" xmlns="http://www.w3.org/2000/svg">
<path d="M62.6445 0.326172C62.5902 0.473658 62.5279 0.628988 62.458 0.791992C62.3959 0.955077 62.3267 1.16164 62.249 1.41016C62.1791 1.60429 62.0892 1.87623 61.9805 2.22559C61.8718 2.57495 61.7481 2.96366 61.6084 3.39062C61.4764 3.80989 61.332 4.245 61.1768 4.69531C61.0293 5.14543 60.8818 5.5839 60.7344 6.01074C60.5869 6.43767 60.4514 6.82248 60.3271 7.16406C60.2719 7.32241 60.2191 7.46607 60.1709 7.59473C60.3824 7.57588 60.6011 7.55595 60.8271 7.53711C61.2931 7.49051 61.7675 7.4401 62.249 7.38574C62.7382 7.33139 63.2118 7.28096 63.6699 7.23438C64.128 7.18003 64.5473 7.12959 64.9277 7.08301C65.0946 7.05918 65.2492 7.03889 65.3906 7.01953C65.3799 6.99826 65.3702 6.9764 65.3594 6.95508C65.1342 6.49699 64.9008 6.06191 64.6602 5.65039C64.4194 5.23879 64.1941 4.89681 63.9844 4.625L64.8584 4.22852C65.0681 4.53139 65.2934 4.88918 65.5342 5.30078C65.7826 5.71228 66.0269 6.14739 66.2676 6.60547C66.5161 7.05585 66.7415 7.48687 66.9434 7.89844C67.153 8.30989 67.3201 8.66693 67.4443 8.96973L66.4658 9.41309C66.3493 9.09468 66.1941 8.72107 66 8.29395C65.9407 8.16121 65.8773 8.02846 65.8145 7.89355C65.6135 7.92016 65.3841 7.94971 65.126 7.97949C64.7222 8.02609 64.2833 8.0765 63.8096 8.13086C63.3436 8.17745 62.8583 8.23182 62.3535 8.29395C61.8565 8.3483 61.3712 8.40267 60.8975 8.45703C60.4237 8.51139 59.9849 8.55883 59.5811 8.59766C59.1773 8.63648 58.8392 8.66713 58.5674 8.69043C58.4199 8.70596 58.2645 8.72574 58.1016 8.74902C57.9385 8.77231 57.7714 8.79507 57.6006 8.81836L57.4258 7.73535C57.6044 7.74312 57.7872 7.74707 57.9736 7.74707C58.1678 7.7393 58.3467 7.7314 58.5098 7.72363C58.6828 7.71402 58.878 7.69819 59.0957 7.68262C59.1625 7.51572 59.236 7.3279 59.3135 7.11816C59.4455 6.76093 59.5888 6.36063 59.7441 5.91797C59.8995 5.47531 60.0507 5.0246 60.1982 4.56641C60.3535 4.1006 60.5019 3.65058 60.6416 3.21582C60.7814 2.78103 60.901 2.38847 61.002 2.03906C61.1107 1.68962 61.1967 1.41383 61.2588 1.21191C61.3287 0.940189 61.3791 0.726596 61.4102 0.571289C61.4412 0.408303 61.464 0.248979 61.4795 0.09375L62.6445 0.326172ZM8.10742 0.536133C8.04533 0.637039 7.97506 0.772659 7.89746 0.943359C7.82757 1.11421 7.76925 1.26246 7.72266 1.38672C7.5829 1.77488 7.40881 2.1943 7.19922 2.64453C6.9973 3.08719 6.76404 3.53395 6.5 3.98438C6.33688 4.27106 6.15899 4.54838 5.9707 4.81934C6.43246 5.19921 6.88483 5.58896 7.32715 5.98828C7.88619 6.48523 8.3954 6.98553 8.85352 7.49023L8.11914 8.29395C7.62995 7.72712 7.12474 7.20706 6.60449 6.7334C6.21168 6.3644 5.79616 5.99336 5.3623 5.61523C5.05993 5.97764 4.72916 6.34305 4.36816 6.70996C3.90229 7.19136 3.37426 7.66103 2.78418 8.11914C2.20173 8.56957 1.54148 8.98963 0.803711 9.37793L0 8.64355C1.08716 8.13102 2.01935 7.53693 2.7959 6.86133C3.47954 6.26566 4.08886 5.64002 4.625 4.98535C4.50185 4.88562 4.36942 4.78147 4.22852 4.67188C3.94905 4.45452 3.64633 4.22501 3.32031 3.98438C3.00198 3.74369 2.6717 3.51032 2.33008 3.28516C1.98844 3.05222 1.65819 2.83469 1.33984 2.63281L1.94531 1.89941C2.23258 2.08576 2.54311 2.29541 2.87695 2.52832C3.2108 2.75347 3.54506 2.98588 3.87891 3.22656C4.21273 3.45946 4.52724 3.68892 4.82227 3.91406C4.96371 4.01924 5.09593 4.11983 5.21875 4.21484C5.54519 3.75759 5.82164 3.29682 6.0459 2.83105C6.34876 2.20204 6.60082 1.60005 6.80273 1.02539C6.84152 0.909023 6.88412 0.769311 6.93066 0.606445C6.97726 0.435594 7.01283 0.287342 7.03613 0.163086L8.10742 0.536133ZM15.2363 0.606445C15.2208 0.839222 15.2139 1.04118 15.2139 1.21191V3.11523C15.5403 3.21839 15.8937 3.33651 16.2734 3.47168C16.7393 3.62697 17.2129 3.79407 17.6943 3.97266C18.1758 4.15127 18.6305 4.33412 19.0576 4.52051C19.4924 4.69906 19.8692 4.86919 20.1875 5.03223L19.791 6.02246C19.4572 5.83617 19.0803 5.65412 18.6611 5.47559C18.2418 5.28924 17.8108 5.10632 17.3682 4.92773C16.9334 4.74917 16.5101 4.58995 16.0986 4.4502C15.7767 4.33256 15.4815 4.23347 15.2139 4.15039V5.0791C15.2216 5.54505 15.2246 5.98392 15.2246 6.39551V8.42285C15.2324 8.58582 15.2442 8.75311 15.2598 8.92383C15.2753 9.08674 15.2872 9.23431 15.2949 9.36621H14.165C14.1961 9.17985 14.2159 8.95838 14.2236 8.70215C14.2392 8.44587 14.2461 8.20866 14.2461 7.99121V1.21191C14.2461 1.04883 14.2392 0.850167 14.2236 0.617188C14.2081 0.384383 14.1844 0.178509 14.1533 0H15.2949C15.2794 0.170852 15.2596 0.373466 15.2363 0.606445ZM42.9609 0.640625C42.8911 0.795846 42.8258 0.967074 42.7637 1.15332C42.7016 1.33959 42.6432 1.50681 42.5889 1.6543C42.4413 2.07366 42.2624 2.53623 42.0527 3.04102C41.8431 3.53796 41.6058 4.03133 41.3418 4.52051C41.0779 5.00952 40.783 5.46759 40.457 5.89453C40.1076 6.33719 39.6954 6.76814 39.2217 7.1875C38.7481 7.60675 38.2437 7.99142 37.708 8.34082C37.1722 8.69024 36.6245 8.98188 36.0654 9.21484L35.25 8.36426C35.8322 8.16241 36.3911 7.90619 36.9268 7.5957C37.4626 7.2773 37.9637 6.9195 38.4297 6.52344C38.8956 6.12739 39.3039 5.71221 39.6533 5.27734C40.0183 4.82696 40.3445 4.32573 40.6318 3.77441C40.9191 3.22321 41.1673 2.65251 41.377 2.0625C41.5866 1.47229 41.7458 0.897041 41.8545 0.337891L42.9609 0.640625ZM31.9648 1.49121V8.48047C31.9726 8.62802 31.9766 8.76046 31.9766 8.87695C31.9843 8.98562 31.9883 9.05982 31.9883 9.09863H30.9863V8.81836C30.9927 8.69703 30.995 8.56518 30.9961 8.42285H24.6377V8.55078C24.6455 8.675 24.6494 8.78774 24.6494 8.88867C24.6572 8.98953 24.6611 9.05983 24.6611 9.09863H23.6592V8.87695C23.6669 8.76046 23.6709 8.62802 23.6709 8.48047C23.6787 8.33304 23.6826 8.18948 23.6826 8.0498V1.49121C23.6826 1.32821 23.6787 1.17683 23.6709 1.03711C23.9037 1.04487 24.1016 1.05278 24.2646 1.06055H31.4287C31.6229 1.05278 31.8097 1.04488 31.9883 1.03711C31.9805 1.17683 31.9726 1.32821 31.9648 1.49121ZM24.6377 7.51367H31.0098V1.98047H24.6377V7.51367ZM55.7168 5.11426C55.6003 5.10649 55.4253 5.09463 55.1924 5.0791C54.9673 5.06359 54.7268 5.05567 54.4707 5.05566H48.0752C47.757 5.05566 47.4542 5.06359 47.167 5.0791C46.8797 5.08687 46.6424 5.09873 46.4561 5.11426V3.97266C46.5725 3.98042 46.716 3.9923 46.8867 4.00781C47.0576 4.01558 47.2444 4.02348 47.4463 4.03125H54.459C54.7539 4.03125 55.0062 4.02333 55.2158 4.00781C55.4255 3.99228 55.5925 3.98042 55.7168 3.97266V5.11426Z" fill="#F1552C"/>
</svg>
